<?xml version="1.0" encoding="UTF-8"?>
<svg version="1.1" xmlns="http://www.w3.org/2000/svg" width="225" height="225">
<path d="M0 0 C24.82357431 -1.63074576 51.76384478 7.8506282 70.67578125 23.94921875 C71.82626953 24.96435547 71.82626953 24.96435547 73 26 C73.81855469 26.68707031 74.63710937 27.37414062 75.48046875 28.08203125 C96.5092259 46.17654321 109.80900179 72.48925816 113 100 C113.06400078 102.31170807 113.08633991 104.62502904 113.0625 106.9375 C113.05347656 108.08089844 113.04445312 109.22429687 113.03515625 110.40234375 C113.01775391 111.68818359 113.01775391 111.68818359 113 113 C109.7 113 106.4 113 103 113 C102.87044922 114.86978516 102.87044922 114.86978516 102.73828125 116.77734375 C100.91012439 140.06907521 94.09300539 159.86813447 79 178 C77.87851562 179.38445312 77.87851562 179.38445312 76.734375 180.796875 C59.0359172 201.54274937 33.97931687 212.23992958 7.24707031 214.54443359 C5.16558563 214.70780833 3.08289285 214.85568374 1 215 C1 218.3 1 221.6 1 225 C-25.68117474 226.7527779 -51.90369143 216.14536363 -72 199 C-72.79664063 198.33613281 -73.59328125 197.67226562 -74.4140625 196.98828125 C-95.46306341 178.83922009 -108.80184216 152.57246761 -112 125 C-112.06400078 122.68829193 -112.08633991 120.37497096 -112.0625 118.0625 C-112.05347656 116.91910156 -112.04445313 115.77570313 -112.03515625 114.59765625 C-112.02355469 113.74042969 -112.01195313 112.88320312 -112 112 C-108.7 112 -105.4 112 -102 112 C-101.87044922 110.13021484 -101.87044922 110.13021484 -101.73828125 108.22265625 C-99.90828925 84.9075441 -93.07756982 65.16574678 -78 47 C-77.30261719 46.13890625 -76.60523438 45.2778125 -75.88671875 44.390625 C-59.57314501 25.18415061 -35.05216114 12.89193294 -10.015625 10.6015625 C-6.67725016 10.35353063 -3.34416751 10.14738732 0 10 C0 6.7 0 3.4 0 0 Z " fill="#FDFCFC" transform="translate(112,0)"/>
<path d="M0 0 C24.82357431 -1.63074576 51.76384478 7.8506282 70.67578125 23.94921875 C71.82626953 24.96435547 71.82626953 24.96435547 73 26 C73.81855469 26.68707031 74.63710937 27.37414062 75.48046875 28.08203125 C96.5092259 46.17654321 109.80900179 72.48925816 113 100 C113.06400078 102.31170807 113.08633991 104.62502904 113.0625 106.9375 C113.05347656 108.08089844 113.04445312 109.22429687 113.03515625 110.40234375 C113.01775391 111.68818359 113.01775391 111.68818359 113 113 C109.7 113 106.4 113 103 113 C102.87044922 114.86978516 102.87044922 114.86978516 102.73828125 116.77734375 C100.91012439 140.06907521 94.09300539 159.86813447 79 178 C77.87851562 179.38445312 77.87851562 179.38445312 76.734375 180.796875 C59.0359172 201.54274937 33.97931687 212.23992958 7.24707031 214.54443359 C5.16558563 214.70780833 3.08289285 214.85568374 1 215 C1 218.3 1 221.6 1 225 C-25.68117474 226.7527779 -51.90369143 216.14536363 -72 199 C-72.79664063 198.33613281 -73.59328125 197.67226562 -74.4140625 196.98828125 C-95.46306341 178.83922009 -108.80184216 152.57246761 -112 125 C-112.06400078 122.68829193 -112.08633991 120.37497096 -112.0625 118.0625 C-112.05347656 116.91910156 -112.04445313 115.77570313 -112.03515625 114.59765625 C-112.02355469 113.74042969 -112.01195313 112.88320312 -112 112 C-108.7 112 -105.4 112 -102 112 C-101.87044922 110.13021484 -101.87044922 110.13021484 -101.73828125 108.22265625 C-99.90828925 84.9075441 -93.07756982 65.16574678 -78 47 C-77.30261719 46.13890625 -76.60523438 45.2778125 -75.88671875 44.390625 C-59.57314501 25.18415061 -35.05216114 12.89193294 -10.015625 10.6015625 C-6.67725016 10.35353063 -3.34416751 10.14738732 0 10 C0 6.7 0 3.4 0 0 Z M31.41796875 16.26171875 C30.85568573 16.60414108 30.29340271 16.94656342 29.71408081 17.29936218 C27.86922326 18.42444445 26.02834818 19.55587168 24.1875 20.6875 C22.91938949 21.46272966 21.65107763 22.23763004 20.38256836 23.01220703 C10.93059697 28.78995256 1.50551163 34.61166806 -7.90234375 40.4609375 C-10.91873561 42.33505527 -13.94662394 44.18647967 -17 46 C-16.50016602 45.32626343 -16.50016602 45.32626343 -15.99023438 44.63891602 C-14.49103019 42.61525246 -12.99547356 40.58892179 -11.5 38.5625 C-10.97535156 37.85544922 -10.45070313 37.14839844 -9.91015625 36.41992188 C-9.41386719 35.74638672 -8.91757813 35.07285156 -8.40625 34.37890625 C-7.94541016 33.7557251 -7.48457031 33.13254395 -7.00976562 32.49047852 C-5.90651981 31.16207064 -5.90651981 31.16207064 -6 30 C-23.39541448 28.60836684 -42.03669386 39.22557998 -55 50 C-69.45220083 62.36113148 -80.73989217 82.23600506 -82.26757812 101.34741211 C-82.364337 104.79938371 -82.36102254 108.23463581 -82.3125 111.6875 C-82.31572266 112.84572266 -82.31894531 114.00394531 -82.32226562 115.19726562 C-82.26652765 124.12040924 -80.8740531 131.80404932 -78.0625 140.25 C-77.74410156 141.22453125 -77.42570312 142.1990625 -77.09765625 143.203125 C-75.9900628 146.0253204 -74.6325708 148.45114302 -73 151 C-68.91609421 149.50467241 -65.33638803 147.53262982 -61.60546875 145.3046875 C-61.01325027 144.95238068 -60.4210318 144.60007385 -59.81086731 144.23709106 C-57.93438817 143.11974705 -56.06092049 141.99746322 -54.1875 140.875 C-52.90970145 140.1129521 -51.63170859 139.35122991 -50.35351562 138.58984375 C-47.23342002 136.73032577 -44.11600401 134.86636813 -41 133 C-45.07090735 138.51349257 -49.28235655 143.88602522 -53.625 149.1875 C-55.26868828 151.20045004 -56.91220213 153.21318996 -58.54394531 155.23583984 C-59.80023092 156.75795919 -61.12492779 158.22313577 -62.4609375 159.67578125 C-64.2364996 161.88932729 -64.2364996 161.88932729 -63.98828125 164.546875 C-60.44229415 173.34877184 -49.49356482 179.63658559 -42 185 C-42.42410156 185.55985596 -42.84820312 186.11971191 -43.28515625 186.6965332 C-45.19754996 189.2296668 -47.0988567 191.77091364 -49 194.3125 C-49.66773438 195.19357422 -50.33546875 196.07464844 -51.0234375 196.98242188 C-51.97089844 198.25375977 -51.97089844 198.25375977 -52.9375 199.55078125 C-53.52402344 200.33106689 -54.11054687 201.11135254 -54.71484375 201.9152832 C-56.26238236 204.01745462 -56.26238236 204.01745462 -56 207 C-32.8698959 193.21257233 -32.8698959 193.21257233 -10 179 C-10.38671875 179.50789062 -10.7734375 180.01578125 -11.171875 180.5390625 C-14.25427193 184.61331983 -17.21571155 188.71647931 -20 193 C-2.76726245 199.38586486 19.67450232 195.63907604 36.109375 188.203125 C44.2776772 184.23707713 51.27141346 179.10267151 58 173 C58.63164062 172.46117187 59.26328125 171.92234375 59.9140625 171.3671875 C72.88202964 159.5835096 82.27967775 139.53268701 83.14208984 122.13330078 C83.84418423 102.65812056 83.84418423 102.65812056 79 84 C78.6184375 83.06671875 78.236875 82.1334375 77.84375 81.171875 C76.9468012 79.08326565 76.01195488 77.03467524 75 75 C70.93774452 75.57823096 68.15237654 76.89117737 64.6875 79.0625 C63.80449219 79.61035156 62.92148438 80.15820312 62.01171875 80.72265625 C61.34785156 81.14417969 60.68398437 81.56570312 60 82 C60.73347656 81.10796875 61.46695313 80.2159375 62.22265625 79.296875 C63.16993788 78.11511772 64.11651616 76.9327964 65.0625 75.75 C65.54783203 75.16347656 66.03316406 74.57695313 66.53320312 73.97265625 C68.10808681 72.04172136 68.10808681 72.04172136 70 69 C68.7118749 59.44367246 57.10423845 50.55075409 50 45 C42.18397778 39.73110284 33.63985099 35.71571231 25 32 C25.42410156 31.49549316 25.84820312 30.99098633 26.28515625 30.47119141 C28.1951814 28.19332899 30.09765676 25.90928088 32 23.625 C32.66773438 22.8309375 33.33546875 22.036875 34.0234375 21.21875 C34.97089844 20.07792969 34.97089844 20.07792969 35.9375 18.9140625 C36.52402344 18.2123291 37.11054688 17.5105957 37.71484375 16.78759766 C39.19457734 15.09628792 39.19457734 15.09628792 39 13 C35.91370368 13 34.03268782 14.6620946 31.41796875 16.26171875 Z " fill="#FA325E" transform="translate(112,0)"/>
<path d="M0 0 C5.71197311 3.98509752 8.60911086 8.45994138 11 15 C11.31437578 16.84728249 11.58553781 18.70245353 11.8125 20.5625 C12.6176544 26.19858082 15.09941219 29.03729929 19.125 32.9296875 C21.23096273 35.25502135 22.17522108 36.97734652 23 40 C22.79296875 42.5703125 22.79296875 42.5703125 22.1875 45.125 C21.99542969 45.97320312 21.80335938 46.82140625 21.60546875 47.6953125 C21.13605359 49.48211859 20.58421114 51.24736657 20 53 C20.89332031 53.37705078 20.89332031 53.37705078 21.8046875 53.76171875 C26.26434464 56.27721931 28.95334729 61.09699506 31.375 65.5 C32.26651022 69.06604087 32.12446229 72.32836249 32 76 C31.17757812 76.20753906 30.35515625 76.41507812 29.5078125 76.62890625 C20.31435316 79.16613117 12.6374107 82.54417189 6.5 90.0625 C4 92 4 92 1.93969727 91.75830078 C1.13588623 91.55188965 0.3320752 91.34547852 -0.49609375 91.1328125 C-5.92362665 89.9162965 -11.01842712 89.73510295 -16.5625 89.8125 C-17.44357422 89.81314453 -18.32464844 89.81378906 -19.23242188 89.81445312 C-23.52842237 89.84298745 -27.63332375 90.06066406 -31.8828125 90.703125 C-34.82648184 91.06080958 -35.70723692 91.14756013 -38.42578125 89.77734375 C-39.04839844 89.17019531 -39.67101562 88.56304687 -40.3125 87.9375 C-54.0645822 75.95525099 -70.59399251 74.42470921 -88 73 C-87.66648834 66.21656446 -86.54615255 60.90763267 -83.4375 54.875 C-83.10814453 54.2046875 -82.77878906 53.534375 -82.43945312 52.84375 C-81.64026541 51.2222097 -80.82217647 49.61000615 -80 48 C-81.32 47.34 -82.64 46.68 -84 46 C-83.11192313 44.59921896 -82.21408741 43.20462363 -81.3125 41.8125 C-80.56419922 40.64654297 -80.56419922 40.64654297 -79.80078125 39.45703125 C-78 37 -78 37 -75.4140625 34.7421875 C-72.20913835 31.10164259 -71.82016047 27.99493886 -71.0625 23.3125 C-69.47794574 15.02116942 -67.16858054 8.32130871 -61.1875 2.12109375 C-59 1 -59 1 -56.07421875 1.5390625 C-52.75067069 3.11848687 -50.49799541 4.86853762 -47.8125 7.375 C-46.97332031 8.14585938 -46.13414063 8.91671875 -45.26953125 9.7109375 C-43 12 -43 12 -41.43359375 14.26171875 C-39.97264394 16.44192851 -39.97264394 16.44192851 -36.25 16.4375 C-32.03539913 16.23826432 -28.86472243 14.66582863 -25 13 C-22.43420443 12.74938741 -19.90972146 12.62591863 -17.33203125 12.6015625 C-13.99321647 11.7402937 -13.06112487 9.70253754 -11 7 C-8.203125 4.98046875 -8.203125 4.98046875 -5.25 3.1875 C-4.26515625 2.58292969 -3.2803125 1.97835937 -2.265625 1.35546875 C-1.51796875 0.90816406 -0.7703125 0.46085937 0 0 Z " fill="#0A0D1B" transform="translate(140,46)"/>
<path d="M0 0 C6.04367938 0.1831418 10.91570242 4.91570242 15 9 C17.23863003 9.01835828 17.23863003 9.01835828 19.8125 8.625 C35.10258664 6.9639042 49.21378954 7.42668263 61.78125 17.15234375 C69.25172084 23.60313826 69.25172084 23.60313826 71 29 C65.25 32 65.25 32 63 32 C62.67 30.35 62.34 28.7 62 27 C61.34 27 60.68 27 60 27 C59.505 29.475 59.505 29.475 59 32 C56.69 30.02 54.38 28.04 52 26 C51.34 27.32 50.68 28.64 50 30 C49.29037109 29.40251953 49.29037109 29.40251953 48.56640625 28.79296875 C41.70072333 23.29239238 34.97673715 20.15313801 26 21 C22.67813829 21.91114536 22.67813829 21.91114536 20 23 C20.62648437 23.17015625 21.25296875 23.3403125 21.8984375 23.515625 C22.71570313 23.75796875 23.53296875 24.0003125 24.375 24.25 C25.18710938 24.48203125 25.99921875 24.7140625 26.8359375 24.953125 C29.45785454 26.2214892 29.99382318 27.32423308 31 30 C30.3709375 29.94199219 29.741875 29.88398437 29.09375 29.82421875 C22.32173021 29.46725988 18.19892691 30.60738814 13 35 C7.26304792 41.03889692 6.59086724 46.99219404 6 55 C4.824375 54.54625 3.64875 54.0925 2.4375 53.625 C-4.17895245 51.38770598 -11.09327605 50.77348028 -18 50 C-9.92255125 32.92255125 -9.92255125 32.92255125 -4 27 C-4.99 26.67 -5.98 26.34 -7 26 C-5.52841629 22.38502261 -3.58537669 20.59408489 -0.5 18.25 C0.2940625 17.63640625 1.088125 17.0228125 1.90625 16.390625 C4 15 4 15 6 15 C4.02 11.535 4.02 11.535 2 8 C1.34 8 0.68 8 0 8 C-1.32 10.64 -2.64 13.28 -4 16 C-4.33 16 -4.66 16 -5 16 C-5.50212051 9.97455391 -4.12689062 6.14869539 -1 1 C-0.67 0.67 -0.34 0.34 0 0 Z " fill="#5E5D66" transform="translate(82,59)"/>
<path d="M0 0 C0.66 0.66 1.32 1.32 2 2 C2.66 0.68 3.32 -0.64 4 -2 C6.31 -0.02 8.62 1.96 11 4 C11.33 3.01 11.66 2.02 12 1 C14.50877741 2.03811479 15.81515217 2.73113043 17.375 5 C19.55018577 7.67715172 21.72895533 8.12772142 25 9 C22.33440687 10.77706209 19.9719385 11.87548273 17 13 C16.505 10.525 16.505 10.525 16 8 C15.34 8 14.68 8 14 8 C13.67 9.65 13.34 11.3 13 13 C10.69 11.02 8.38 9.04 6 7 C5.34 8.32 4.68 9.64 4 11 C3.52691406 10.60167969 3.05382812 10.20335938 2.56640625 9.79296875 C-4.29927667 4.29239238 -11.02326285 1.15313801 -20 2 C-23.32186171 2.91114536 -23.32186171 2.91114536 -26 4 C-25.37351562 4.17015625 -24.74703125 4.3403125 -24.1015625 4.515625 C-23.28429687 4.75796875 -22.46703125 5.0003125 -21.625 5.25 C-20.81289062 5.48203125 -20.00078125 5.7140625 -19.1640625 5.953125 C-16.54214546 7.2214892 -16.00617682 8.32423308 -15 11 C-15.6290625 10.94199219 -16.258125 10.88398437 -16.90625 10.82421875 C-23.67826979 10.46725988 -27.80107309 11.60738814 -33 16 C-38.73695208 22.03889692 -39.40913276 27.99219404 -40 36 C-41.4589426 35.52269162 -42.91713496 35.04308958 -44.375 34.5625 C-45.18710938 34.29566406 -45.99921875 34.02882812 -46.8359375 33.75390625 C-49 33 -49 33 -51 32 C-50.6691018 24.38934133 -47.18325136 18.38220457 -42 12.875 C-38.6078684 9.791244 -35.49307897 7.26367846 -31 6 C-33.64 6 -36.28 6 -39 6 C-35.40901596 0.61352395 -30.78182018 -2.08337906 -24.56640625 -3.58984375 C-15.69716029 -5.00730315 -8.10996707 -3.91910225 0 0 Z " fill="#F5F4F5" transform="translate(128,78)"/>
<path d="M0 0 C3.62498334 -0.02893932 7.24993713 -0.04677792 10.875 -0.0625 C12.42380859 -0.07506836 12.42380859 -0.07506836 14.00390625 -0.08789062 C14.99003906 -0.09111328 15.97617188 -0.09433594 16.9921875 -0.09765625 C18.35899658 -0.10551147 18.35899658 -0.10551147 19.75341797 -0.11352539 C22 0 22 0 24 1 C23.51219859 5.79671389 22.84804733 9.54294469 21 14 C20.54653014 16.30003183 20.12912253 18.59929997 19.7578125 20.9140625 C18.74555902 23.70036846 17.51037919 24.46112727 15 26 C12.61816406 26.34057617 12.61816406 26.34057617 10.015625 26.29296875 C9.08105469 26.28330078 8.14648438 26.27363281 7.18359375 26.26367188 C6.21550781 26.23853516 5.24742188 26.21339844 4.25 26.1875 C3.26644531 26.17396484 2.28289062 26.16042969 1.26953125 26.14648438 C-1.15420415 26.11118726 -3.57682145 26.06188054 -6 26 C-5.45355725 19.67508216 -4.33031923 13.98709871 -2.4375 7.9375 C-2.20353516 7.16728516 -1.96957031 6.39707031 -1.72851562 5.60351562 C-1.15938628 3.7335192 -0.58071506 1.86643105 0 0 Z " fill="#0F111D" transform="translate(76,144)"/>
<path d="M0 0 C5.71197311 3.98509752 8.60911086 8.45994138 11 15 C11.31437578 16.84728249 11.58553781 18.70245353 11.8125 20.5625 C12.6176544 26.19858082 15.09941219 29.03729929 19.125 32.9296875 C21.23096273 35.25502135 22.17522108 36.97734652 23 40 C22.79296875 42.5703125 22.79296875 42.5703125 22.1875 45.125 C21.99542969 45.97320312 21.80335938 46.82140625 21.60546875 47.6953125 C21.13605359 49.48211859 20.58421114 51.24736657 20 53 C20.59554687 53.25136719 21.19109375 53.50273438 21.8046875 53.76171875 C26.26434464 56.27721931 28.95334729 61.09699506 31.375 65.5 C32.26651022 69.06604087 32.12446229 72.32836249 32 76 C31.10796875 76.26554687 30.2159375 76.53109375 29.296875 76.8046875 C28.12640625 77.15789062 26.9559375 77.51109375 25.75 77.875 C24.58984375 78.22304687 23.4296875 78.57109375 22.234375 78.9296875 C19.64872928 79.78532389 17.37713126 80.6937546 15 82 C15 81.34 15 80.68 15 80 C17.3359375 78.2734375 17.3359375 78.2734375 20.375 76.375 C21.37273437 75.74335937 22.37046875 75.11171875 23.3984375 74.4609375 C26 73 26 73 28 73 C25.16192763 64.97729263 22.29709288 58.86472859 15 54 C15.87508872 49.33286018 15.87508872 49.33286018 16.6875 47.16796875 C17.75951779 44.0798266 18.38615895 42.01110217 17.19140625 38.8828125 C15.20563571 35.60412594 13.26453295 33.22146945 10.3125 30.75 C7.19427481 27.04184031 7.195443 23.80204734 6.6015625 19.0859375 C5.82249135 15.0894037 4.18455615 12.15250769 2.0234375 8.7421875 C1 7 1 7 1 5 C-0.40366418 5.86238191 -1.79754618 6.74069006 -3.1875 7.625 C-3.96480469 8.11226562 -4.74210937 8.59953125 -5.54296875 9.1015625 C-8.21703402 10.96725785 -8.21703402 10.96725785 -10.1875 14.1875 C-13.2230375 17.2230375 -13.62762642 17.41676286 -17.64453125 17.5859375 C-19.36816647 17.5463137 -21.09131852 17.47511346 -22.8125 17.375 C-24.13797852 17.33439453 -24.13797852 17.33439453 -25.49023438 17.29296875 C-27.66121114 17.22255869 -29.83092529 17.11494606 -32 17 C-27.80396934 13.19477612 -23.54014247 13.30748981 -18.09375 12.8203125 C-14.16501413 11.77860223 -13.36123336 10.22544476 -11 7 C-8.203125 4.98046875 -8.203125 4.98046875 -5.25 3.1875 C-4.26515625 2.58292969 -3.2803125 1.97835937 -2.265625 1.35546875 C-1.51796875 0.90816406 -0.7703125 0.46085937 0 0 Z " fill="#F52F5C" transform="translate(140,46)"/>
<path d="M0 0 C0.88945312 0.00966797 1.77890625 0.01933594 2.6953125 0.02929688 C3.61570313 0.05443359 4.53609375 0.07957031 5.484375 0.10546875 C6.42023438 0.11900391 7.35609375 0.13253906 8.3203125 0.14648438 C10.62558827 0.18176921 12.9296856 0.23106594 15.234375 0.29296875 C14.904375 2.60296875 14.574375 4.91296875 14.234375 7.29296875 C6.314375 7.78796875 6.314375 7.78796875 -1.765625 8.29296875 C-2.755625 11.92296875 -3.745625 15.55296875 -4.765625 19.29296875 C-1.795625 19.29296875 1.174375 19.29296875 4.234375 19.29296875 C4.894375 16.32296875 5.554375 13.35296875 6.234375 10.29296875 C8.874375 10.29296875 11.514375 10.29296875 14.234375 10.29296875 C13.8101821 12.23342563 13.36951505 14.17028636 12.921875 16.10546875 C12.67824219 17.18441406 12.43460938 18.26335937 12.18359375 19.375 C11.23843132 22.28049932 10.64918808 23.49825582 8.234375 25.29296875 C4.51692193 26.53211977 1.04314119 26.47704588 -2.828125 26.48046875 C-3.56095703 26.49271484 -4.29378906 26.50496094 -5.04882812 26.51757812 C-6.95589007 26.52283174 -8.86247386 26.41515147 -10.765625 26.29296875 C-12.765625 24.29296875 -12.765625 24.29296875 -13.140625 20.98046875 C-12.98431594 14.9067454 -11.2158894 8.82118875 -8.765625 3.29296875 C-5.85181313 0.57724497 -3.94927768 -0.07594765 0 0 Z " fill="#11131E" transform="translate(139.765625,143.70703125)"/>
<path d="M0 0 C-0.99 0.495 -0.99 0.495 -2 1 C-3.20643566 4.61930698 -3.32268559 7.19231005 -3 11 C-0.97333762 14.70390021 0.48044516 16.65363011 4 19 C7.56515192 19.28680957 11.09027109 19.41448011 14.6640625 19.47851562 C20.25118974 19.67875358 23.62523607 20.78901289 27.8125 24.6875 C28.4003125 25.3371875 28.4003125 25.3371875 29 26 C28.67 26.66 28.34 27.32 28 28 C25.36 27.34 22.72 26.68 20 26 C20.66 27.32 21.32 28.64 22 30 C21.16662109 29.50669189 21.16662109 29.50669189 20.31640625 29.00341797 C17.62220579 27.83634757 15.85907961 27.82537284 12.9375 27.9453125 C11.97585937 27.96980469 11.01421875 27.99429688 10.0234375 28.01953125 C8.0075252 28.08985377 5.9918701 28.16798228 3.9765625 28.25390625 C-3.40787971 28.42218442 -3.40787971 28.42218442 -6.61328125 26.13671875 C-9.56761303 21.5845512 -10.36852022 17.36757814 -11 12 C-11.66 12.66 -12.32 13.32 -13 14 C-12.88165399 7.13593156 -12.88165399 7.13593156 -10.55078125 4.1328125 C-7.19752606 1.09233382 -4.72671368 -0.85940249 0 0 Z " fill="#F3F3F4" transform="translate(115,100)"/>
<path d="M0 0 C6.10419901 1.2457549 9.54831603 3.69715653 14 8 C14.91265625 7.50306641 14.91265625 7.50306641 15.84375 6.99609375 C18 6 18 6 20.5 6.0625 C23.78449078 7.29418404 25.03407138 9.16032533 27 12 C22.98195309 12.84098656 19.98196457 13.05404945 16 12 C16.66 14.64 17.32 17.28 18 20 C19.32 20.33 20.64 20.66 22 21 C22 21.66 22 22.32 22 23 C17.65509851 25.23828259 14.6893655 25.39858269 10 24 C7.61157051 21.95190652 5.84564785 19.53600468 4 17 C-1.11368771 10.12100807 -4.83079501 6.03427614 -13 3 C-13 2.67 -13 2.34 -13 2 C-11.39592672 1.97291433 -9.7917215 1.95356517 -8.1875 1.9375 C-7.29417969 1.92589844 -6.40085937 1.91429688 -5.48046875 1.90234375 C-3 2 -3 2 0 3 C0 2.01 0 1.02 0 0 Z " fill="#F4F4F4" transform="translate(131,96)"/>
<path d="M0 0 C6.93 0 13.86 0 21 0 C20.67 2.31 20.34 4.62 20 7 C15.38 7 10.76 7 6 7 C6 7.99 6 8.98 6 10 C9.63 10 13.26 10 17 10 C16.67 11.65 16.34 13.3 16 15 C12.04 15 8.08 15 4 15 C3.34 18.63 2.68 22.26 2 26 C-0.97 26 -3.94 26 -7 26 C-5.09275183 17.17175278 -2.7425937 8.60606988 0 0 Z " fill="#10131E" transform="translate(106,144)"/>
<path d="M0 0 C7.18301314 11.82204247 7.18301314 11.82204247 6 18 C5.01 18.66 4.02 19.32 3 20 C2.79503906 19.24074219 2.59007812 18.48148438 2.37890625 17.69921875 C2.10949219 16.70535156 1.84007812 15.71148437 1.5625 14.6875 C1.29566406 13.70136719 1.02882812 12.71523438 0.75390625 11.69921875 C0.21920575 9.78482474 -0.37144538 7.88566385 -1 6 C-2.65 6.99 -4.3 7.98 -6 9 C-5.01 9 -4.02 9 -3 9 C-1.5393715 11.64738916 -1 12.89448334 -1 16 C-1.99 16.495 -1.99 16.495 -3 17 C-1.35 17.99 0.3 18.98 2 20 C1.505 21.485 1.505 21.485 1 23 C-1.88951483 22.36932639 -4.28007125 21.40175348 -6.9375 20.125 C-15.42075565 16.60849161 -24.95125162 16.08395164 -34 15 C-34 14.01 -34 13.02 -34 12 C-33.42556152 12.00636475 -32.85112305 12.01272949 -32.25927734 12.01928711 C-29.62989493 12.02802876 -27.00397705 11.98320544 -24.375 11.9375 C-23.01955078 11.95393555 -23.01955078 11.95393555 -21.63671875 11.97070312 C-16.49639043 11.88624988 -16.49639043 11.88624988 -12.12695312 9.46508789 C-10.54457756 7.63983017 -10.54457756 7.63983017 -9.26513672 5.73632812 C-7.09787507 2.76188489 -3.7975524 0 0 0 Z " fill="#080B1A" transform="translate(141,51)"/>
<path d="M0 0 C0.64995297 1.41478135 1.29478722 2.83191487 1.9375 4.25 C2.29714844 5.03890625 2.65679687 5.8278125 3.02734375 6.640625 C3.90033279 8.75823698 4.51338508 10.76669362 5 13 C5.99 12.01 6.98 11.02 8 10 C8.020625 11.010625 8.04125 12.02125 8.0625 13.0625 C8.65966469 17.48330128 11.11862448 19.38919063 14.265625 22.328125 C16.81131746 24.7820808 18.05737712 26.56615952 19 30 C18.44864052 32.57445806 17.65300604 34.97229065 16.7734375 37.453125 C15.66696718 41.09665352 15.78989978 44.21819602 16 48 C14.68 47.34 13.36 46.68 12 46 C12 45.34 12 44.68 12 44 C11.34 44 10.68 44 10 44 C10.33 42.68 10.66 41.36 11 40 C9.515 39.505 9.515 39.505 8 39 C8.33 38.4225 8.66 37.845 9 37.25 C10.27075898 34.80116138 10.27075898 34.80116138 10 31 C10.99 31 11.98 31 13 31 C9.43679155 25.90789714 5.95258714 21.77339973 1 18 C1.33 16.68 1.66 15.36 2 14 C0.02 13.01 -1.96 12.02 -4 11 C-2.68 10.67 -1.36 10.34 0 10 C-0.66 7.69 -1.32 5.38 -2 3 C-3.98 3.99 -3.98 3.99 -6 5 C-3.74193548 0 -3.74193548 0 0 0 Z " fill="#1A1B29" transform="translate(140,57)"/>
<path d="M0 0 C3.71029719 0.16864987 5.57650512 0.64165818 8.4375 3.0625 C9.283125 4.031875 10.12875 5.00125 11 6 C11.61617187 6.68449219 12.23234375 7.36898437 12.8671875 8.07421875 C18 13.81513554 18 13.81513554 18 15 C15.41554227 15.1081866 12.83562648 15.18737237 10.25 15.25 C9.52039063 15.28351563 8.79078125 15.31703125 8.0390625 15.3515625 C4.44144052 15.41697381 2.43961388 15.33388396 -0.46875 13.125 C-1.9889694 11.01530777 -2.63489008 9.55576947 -3 7 C-1.68 7.99 -0.36 8.98 1 10 C1.66 9.34 2.32 8.68 3 8 C3.66 8 4.32 8 5 8 C4.01 6.68 3.02 5.36 2 4 C1.34 4.66 0.68 5.32 0 6 C-0.38218767 4.34385343 -0.71395102 2.67542976 -1 1 C-0.67 0.67 -0.34 0.34 0 0 Z " fill="#EEEEEF" transform="translate(117,102)"/>
<path d="M0 0 C10.91026392 1.27979635 18.43337606 8.70234625 25 17 C23 18 23 18 20.625 17.375 C17.50503845 15.74073443 16.08281599 13.80102841 14 11 C13.34 10.67 12.68 10.34 12 10 C11.67 11.32 11.34 12.64 11 14 C10.70867187 13.39671875 10.41734375 12.7934375 10.1171875 12.171875 C7.38141432 6.83797761 5.23389528 3.92124388 0 1 C0 0.67 0 0.34 0 0 Z " fill="#EF2D59" transform="translate(128,69)"/>
<path d="M0 0 C6.81108611 3.1217478 10.79643282 7.85869088 15 14 C15.33 14.99 15.66 15.98 16 17 C10.34409281 19.74225803 5.01344909 19.45780584 -1 18 C-1 17.67 -1 17.34 -1 17 C5.435 16.505 5.435 16.505 12 16 C10.7625 14.411875 9.525 12.82375 8.25 11.1875 C7.55390625 10.29417969 6.8578125 9.40085937 6.140625 8.48046875 C4.13830342 5.96711259 4.13830342 5.96711259 1.734375 4.36328125 C1.16203125 3.91339844 0.5896875 3.46351562 0 3 C0 2.01 0 1.02 0 0 Z " fill="#1D1E26" transform="translate(122,100)"/>
<path d="M0 0 C3.875 1.75 3.875 1.75 5 4 C5.66 3.34 6.32 2.68 7 2 C9.475 5.465 9.475 5.465 12 9 C10.68 8.67 9.36 8.34 8 8 C7.34 8.66 6.68 9.32 6 10 C5.01 9.34 4.02 8.68 3 8 C3.33 8.99 3.66 9.98 4 11 C3.01 11.33 2.02 11.66 1 12 C-1.32488647 8.36736489 -1.23961213 5.23314767 -1 1 C-0.67 0.67 -0.34 0.34 0 0 Z " fill="#0E101A" transform="translate(112,103)"/>
<path d="M0 0 C7.625 0.875 7.625 0.875 11 2 C10.4375 4.375 10.4375 4.375 9 7 C5.375 8.3125 5.375 8.3125 2 9 C-0.29013653 5.5647952 -0.17842973 4.014669 0 0 Z " fill="#2B1322" transform="translate(147,108)"/>
<path d="M0 0 C4.59225513 9.22551253 4.59225513 9.22551253 4 15 C1.36 13.68 -1.28 12.36 -4 11 C-2.68 10.67 -1.36 10.34 0 10 C-0.66 7.69 -1.32 5.38 -2 3 C-3.98 3.99 -3.98 3.99 -6 5 C-3.74193548 0 -3.74193548 0 0 0 Z " fill="#DF2B54" transform="translate(140,57)"/>
<path d="M0 0 C1.0209375 0.433125 1.0209375 0.433125 2.0625 0.875 C9.95068711 3.89600783 16.68256107 5.07935973 25 3 C25.99 4.485 25.99 4.485 27 6 C22.43042764 7.18772615 18.16760245 7.05031394 13.5 6.8125 C12.75363281 6.79380859 12.00726563 6.77511719 11.23828125 6.75585938 C6.33116902 6.50833247 3.52940803 5.71848346 0 2 C0 1.34 0 0.68 0 0 Z " fill="#06070F" transform="translate(114,114)"/>
<path d="M0 0 C4.39683488 1.19913678 7.09840934 2.4288115 10 6 C10 6.66 10 7.32 10 8 C7.25 8.375 7.25 8.375 4 8 C0 3.15789474 0 3.15789474 0 0 Z " fill="#EEEEEE" transform="translate(117,85)"/>
<path d="M0 0 C0.66 0.33 1.32 0.66 2 1 C1.505 1.61875 1.01 2.2375 0.5 2.875 C-1.19222773 4.83880904 -1.19222773 4.83880904 -1 7 C-1.9075 7.268125 -2.815 7.53625 -3.75 7.8125 C-6.71471963 8.89576294 -8.6169754 9.98359457 -11 12 C-10.45550236 8.20527027 -8.96207612 6.72968732 -6.0625 4.3125 C-5.35222656 3.71050781 -4.64195312 3.10851563 -3.91015625 2.48828125 C-2 1 -2 1 0 0 Z " fill="#160D1D" transform="translate(139,51)"/>
<path d="M0 0 C2.97 0 5.94 0 9 0 C8.67 1.32 8.34 2.64 8 4 C5.03 4 2.06 4 -1 4 C-0.67 2.68 -0.34 1.36 0 0 Z " fill="#DFE0E1" transform="translate(80,159)"/>
<path d="M0 0 C0.66 0 1.32 0 2 0 C0.46356148 3.68069887 -1.78150945 5.98775204 -4.625 8.75 C-5.85089844 9.94882812 -5.85089844 9.94882812 -7.1015625 11.171875 C-7.72804687 11.77515625 -8.35453125 12.3784375 -9 13 C-9.66 12.67 -10.32 12.34 -11 12 C-9.21479439 9.99388266 -7.42241288 7.9951283 -5.625 6 C-5.11710937 5.42765625 -4.60921875 4.8553125 -4.0859375 4.265625 C-2.76495095 2.80558723 -1.38599201 1.39847843 0 0 Z " fill="#FA5178" transform="translate(44,36)"/>
<path d="M0 0 C2.97 0 5.94 0 9 0 C9 0.99 9 1.98 9 3 C6.03 3 3.06 3 0 3 C0 2.01 0 1.02 0 0 Z " fill="#F9F9F9" transform="translate(82,151)"/>
<path d="M0 0 C0.33 0 0.66 0 1 0 C1.12375 1.0725 1.2475 2.145 1.375 3.25 C1.89643936 6.37863615 2.40088254 8.33480424 4 11 C3.01 11.33 2.02 11.66 1 12 C-1.32488647 8.36736489 -1.23961213 5.23314767 -1 1 C-0.67 0.67 -0.34 0.34 0 0 Z " fill="#24242D" transform="translate(112,103)"/>
<path d="M0 0 C1.46179688 0.33064453 1.46179688 0.33064453 2.953125 0.66796875 C3.93796875 0.88066406 4.9228125 1.09335937 5.9375 1.3125 C6.68515625 1.49167969 7.4328125 1.67085937 8.203125 1.85546875 C8.203125 2.18546875 8.203125 2.51546875 8.203125 2.85546875 C3.253125 2.85546875 -1.696875 2.85546875 -6.796875 2.85546875 C-2.796875 -0.14453125 -2.796875 -0.14453125 0 0 Z " fill="#BB264A" transform="translate(114.796875,60.14453125)"/>
<path d="M0 0 C1.875 0.25 1.875 0.25 4 1 C5.25 3.0625 5.25 3.0625 6 5 C5.01 5.33 4.02 5.66 3 6 C0 2.25 0 2.25 0 0 Z " fill="#13141C" transform="translate(129,108)"/>
<path d="M0 0 C2.31 0 4.62 0 7 0 C6.67 0.66 6.34 1.32 6 2 C3.67843403 2.40729228 1.3431213 2.74438677 -1 3 C-0.67 2.01 -0.34 1.02 0 0 Z " fill="#64646C" transform="translate(91,83)"/>
<path d="M0 0 C0.66 0.33 1.32 0.66 2 1 C-1.465 3.97 -1.465 3.97 -5 7 C-3.92643531 2.70574125 -3.4915227 2.25259529 0 0 Z " fill="#15161D" transform="translate(81,47)"/>
</svg>
