<?xml version="1.0" encoding="UTF-8"?>
<svg version="1.1" xmlns="http://www.w3.org/2000/svg" width="250" height="250">
<path d="M0 0 C3.00863707 0.00096819 6.0146809 -0.04068552 9.02294922 -0.08496094 C26.33512822 -0.19471787 41.67690723 2.86972835 57.22216797 10.68847656 C58.18791748 11.16333496 59.15366699 11.63819336 60.14868164 12.12744141 C72.31981273 18.26546433 82.57548756 26.05320795 92.40966797 35.50097656 C92.99361328 35.99726562 93.57755859 36.49355469 94.17919922 37.00488281 C95.40966797 38.50097656 95.40966797 38.50097656 95.40966797 42.50097656 C94.69166016 42.57574219 93.97365234 42.65050781 93.23388672 42.72753906 C62.93107732 46.57671286 38.28631437 63.49563665 14.40966797 81.50097656 C15.73110905 84.29205772 17.21349158 86.75884045 19.03466797 89.25097656 C19.48068359 89.86457031 19.92669922 90.47816406 20.38623047 91.11035156 C20.89283203 91.79871094 20.89283203 91.79871094 21.40966797 92.50097656 C25.29755413 91.1664307 27.71056229 89.51811684 30.72216797 86.75097656 C48.39910536 71.96445731 73.03432446 58.37600981 96.28466797 56.12597656 C101.0476423 56.69753348 104.95443979 57.94873317 108.28466797 61.50097656 C111.75477018 67.67004716 111.00469814 74.90284921 109.34716797 81.56347656 C103.65911707 100.31297769 94.5022795 118.0962343 82.40966797 133.50097656 C81.53399255 134.64238579 80.65903604 135.78434679 79.78466797 136.92675781 C74.97177281 143.17365799 70.02957236 149.22745803 64.67529297 155.02441406 C62.80793039 157.06563453 60.99658594 159.13630134 59.19091797 161.23144531 C55.19070759 165.81319349 50.96172594 170.14099817 46.65966797 174.43847656 C45.86544434 175.23189453 45.0712207 176.0253125 44.25292969 176.84277344 C39.34924846 181.69553067 34.40254223 186.26412167 28.96044922 190.50878906 C26.13678396 192.7141019 23.43922783 195.04083275 20.72216797 197.37597656 C3.35109733 211.77041873 -16.81063835 224.1633109 -38.59033203 230.50097656 C-39.21681641 230.69691406 -39.84330078 230.89285156 -40.48876953 231.09472656 C-43.67136197 231.70994889 -46.78980501 231.75250281 -50.02783203 231.81347656 C-51.97496094 231.86955078 -51.97496094 231.86955078 -53.96142578 231.92675781 C-58.16046042 231.43408313 -59.68437641 230.51241151 -62.59033203 227.50097656 C-66.19283324 222.05355807 -65.056218 215.32624216 -64.04345703 209.18457031 C-59.27050244 188.67437393 -47.69115321 168.59200731 -34.71826172 152.15844727 C-33.40279878 150.55954222 -33.40279878 150.55954222 -33.59033203 148.50097656 C-35.83678738 146.68388481 -35.83678738 146.68388481 -38.59033203 144.87597656 C-39.51845703 144.24433594 -40.44658203 143.61269531 -41.40283203 142.96191406 C-42.12470703 142.47980469 -42.84658203 141.99769531 -43.59033203 141.50097656 C-62.40916479 163.44729442 -76.51812057 189.47387518 -79.59033203 218.50097656 C-87.03268299 217.41845279 -92.30124008 209.26873363 -96.62939453 203.61816406 C-110.54843355 184.80091011 -121.64057897 162.23548799 -121.82861328 138.47753906 C-121.83668503 137.49917084 -121.84475677 136.52080261 -121.85307312 135.51278687 C-121.86688662 133.44002029 -121.87762097 131.36723123 -121.88549805 129.29443359 C-121.89695647 127.19996349 -121.91730941 125.10552116 -121.94702148 123.01123047 C-122.12459757 110.47773192 -121.760334 99.4009459 -117.59033203 87.50097656 C-117.17448853 86.21827881 -117.17448853 86.21827881 -116.75024414 84.90966797 C-116.02494993 82.74558438 -115.23958497 80.62418324 -114.40283203 78.50097656 C-114.10803955 77.75243408 -113.81324707 77.0038916 -113.50952148 76.23266602 C-103.75831795 52.37871176 -86.05689924 32.44245744 -64.59033203 18.50097656 C-63.65060547 17.87707031 -62.71087891 17.25316406 -61.74267578 16.61035156 C-55.65869915 12.81107502 -49.27590157 9.9575373 -42.65283203 7.25097656 C-41.85474121 6.92145996 -41.05665039 6.59194336 -40.234375 6.25244141 C-26.86290794 0.98097174 -14.22892714 -0.03216615 0 0 Z M-65.46533203 67.18847656 C-67.27127899 70.90070087 -67.22630149 74.4611251 -66.59033203 78.50097656 C-64.01373079 83.24192286 -60.67124055 84.92414288 -55.59033203 86.50097656 C-50.04764611 86.50097656 -47.4395267 84.17113892 -43.59033203 80.50097656 C-41.85442051 77.02915353 -42.1246153 73.29688692 -42.59033203 69.50097656 C-44.21178806 66.31597365 -45.56361467 64.2798656 -48.40283203 62.12597656 C-55.78196185 60.01765376 -60.01054501 62.27916825 -65.46533203 67.18847656 Z M-12.59033203 78.50097656 C-12.77208984 79.22800781 -12.95384766 79.95503906 -13.14111328 80.70410156 C-13.67045045 82.82145025 -14.20606508 84.93723547 -14.74658203 87.05175781 C-15.2936525 89.28816161 -15.79660059 91.53600272 -16.24658203 93.79394531 C-16.46314453 94.83164063 -16.67970703 95.86933594 -16.90283203 96.93847656 C-17.08458984 97.8859375 -17.26634766 98.83339844 -17.45361328 99.80957031 C-18.99174788 103.4514079 -21.25965674 105.51651994 -24.59033203 107.50097656 C-27.18895785 108.51735956 -29.79844909 109.12813967 -32.52783203 109.68847656 C-33.89136173 109.99335713 -35.2546457 110.29933882 -36.61767578 110.60644531 C-37.60356689 110.82179932 -37.60356689 110.82179932 -38.609375 111.04150391 C-41.63948919 111.7443231 -44.60807616 112.61835325 -47.59033203 113.50097656 C-47.59033203 116.14097656 -47.59033203 118.78097656 -47.59033203 121.50097656 C-45.87136719 121.79101562 -45.87136719 121.79101562 -44.11767578 122.08691406 C-42.5876932 122.34973316 -41.05774721 122.61276535 -39.52783203 122.87597656 C-38.77566406 123.00230469 -38.02349609 123.12863281 -37.24853516 123.25878906 C-31.52094355 124.25057982 -26.10990395 125.66111925 -20.59033203 127.50097656 C-18.53366062 131.51602258 -17.64147395 135.94877397 -16.59033203 140.31347656 C-16.42533203 140.98701172 -16.26033203 141.66054687 -16.09033203 142.35449219 C-15.75831205 143.70980813 -15.42757233 145.06543838 -15.09814453 146.42138672 C-14.27680797 149.78491788 -13.43273038 153.14266531 -12.59033203 156.50097656 C-9.95033203 156.50097656 -7.31033203 156.50097656 -4.59033203 156.50097656 C-3.62177794 152.25423939 -2.68328452 148.03064075 -1.93017578 143.73925781 C-1.81198486 143.0819165 -1.69379395 142.4245752 -1.57202148 141.74731445 C-1.22729798 139.8179482 -0.89683643 137.88605052 -0.56689453 135.95410156 C0.63964062 131.68779325 2.29480221 128.72392068 6.20654297 126.46191406 C22.7430013 121.50097656 22.7430013 121.50097656 30.40966797 121.50097656 C30.40966797 118.86097656 30.40966797 116.22097656 30.40966797 113.50097656 C28.85119141 113.12005859 28.85119141 113.12005859 27.26123047 112.73144531 C23.64811081 111.84377657 20.04100284 110.93384914 16.43603516 110.01367188 C14.71413124 109.57800944 12.98807613 109.15880682 11.26123047 108.74316406 C10.40271484 108.51886719 9.54419922 108.29457031 8.65966797 108.06347656 C7.92232422 107.87914063 7.18498047 107.69480469 6.42529297 107.50488281 C3.47916921 106.03753048 2.19587927 104.24870161 0.40966797 101.50097656 C-0.56689453 98.26660156 -0.56689453 98.26660156 -1.21533203 94.75097656 C-1.45123047 93.52636719 -1.68712891 92.30175781 -1.93017578 91.04003906 C-2.14802734 89.87214844 -2.36587891 88.70425781 -2.59033203 87.50097656 C-2.97741767 85.70739964 -3.37167684 83.9153316 -3.77783203 82.12597656 C-4.04595703 80.92972656 -4.31408203 79.73347656 -4.59033203 78.50097656 C-7.23033203 78.50097656 -9.87033203 78.50097656 -12.59033203 78.50097656 Z " fill="#EF625B" transform="translate(121.59033203125,-0.5009765625)"/>
<path d="M0 0 C0.66 0 1.32 0 2 0 C6.27736133 11.25486791 6.62132966 21.94726584 6.52148438 33.88549805 C6.50005959 36.92903534 6.52136767 39.97020644 6.546875 43.01367188 C6.56367415 54.34946307 5.71960358 64.25117751 2 75 C1.7230127 75.85585693 1.44602539 76.71171387 1.16064453 77.59350586 C0.43434847 79.75642386 -0.35103155 81.87751518 -1.1875 84 C-1.48229248 84.74854248 -1.77708496 85.49708496 -2.08081055 86.26831055 C-11.83201408 110.1222648 -29.53343279 130.05851913 -51 144 C-51.93972656 144.62390625 -52.87945312 145.2478125 -53.84765625 145.890625 C-59.93163288 149.68990155 -66.31443047 152.54343926 -72.9375 155.25 C-73.73559082 155.5795166 -74.53368164 155.9090332 -75.35595703 156.24853516 C-88.98995396 161.62350269 -101.46573449 162.48121051 -115.97485352 162.39111328 C-119.05985609 162.3750138 -122.14355243 162.39103913 -125.22851562 162.41015625 C-147.13639261 162.43180369 -147.13639261 162.43180369 -156 158 C-155.67 157.01 -155.34 156.02 -155 155 C-152.62331915 153.97494299 -150.32416492 153.12313311 -147.875 152.3125 C-126.4523133 144.67943047 -107.6679721 131.08350132 -90 117 C-88.97773315 116.22281616 -88.97773315 116.22281616 -87.93481445 115.42993164 C-82.56087599 111.33184934 -77.5726594 106.97919406 -72.6875 102.3125 C-71.95547363 101.61769531 -71.22344727 100.92289062 -70.46923828 100.20703125 C-57.20587879 87.5736015 -45.15667097 74.54259489 -34 60 C-33.44328613 59.27844727 -32.88657227 58.55689453 -32.31298828 57.81347656 C-18.7140618 40.10483816 -6.84963921 21.40102586 0 0 Z " fill="#EF615B" transform="translate(244,88)"/>
</svg>
