<?xml version="1.0" encoding="UTF-8"?>
<svg version="1.1" xmlns="http://www.w3.org/2000/svg" width="225" height="225">
<path d="M0 0 C18.24867986 14.66688313 30.50954027 32.71968345 38.0625 54.8125 C38.30137939 55.50835205 38.54025879 56.2042041 38.78637695 56.92114258 C47.66590331 84.49170233 43.62411146 115.77075891 30.83984375 141.38671875 C16.21320423 168.20723023 -6.78914076 187.10063637 -35.5625 196.9375 C-36.25835205 197.17637939 -36.9542041 197.41525879 -37.67114258 197.66137695 C-65.24170233 206.54090331 -96.52075891 202.49911146 -122.13671875 189.71484375 C-148.95723023 175.08820423 -167.85063637 152.08585924 -177.6875 123.3125 C-177.92637939 122.61664795 -178.16525879 121.9207959 -178.41137695 121.20385742 C-187.29090331 93.63329767 -183.24911146 62.35424109 -170.46484375 36.73828125 C-155.83820423 9.91776977 -132.83585924 -8.97563637 -104.0625 -18.8125 C-103.36664795 -19.05137939 -102.6707959 -19.29025879 -101.95385742 -19.53637695 C-67.33524391 -30.68583833 -28.29118327 -21.99497094 0 0 Z " fill="#020202" transform="translate(182.3125,23.4375)"/>
<path d="M0 0 C9.75896591 6.06102134 17.86402141 14.33992138 25.3125 23.0234375 C29.72189357 28.10228557 34.51223022 32.7818171 39.30078125 37.5 C41.06748311 39.24107892 42.83188852 40.98449183 44.59375 42.73046875 C45.36614014 43.49125732 46.13853027 44.2520459 46.93432617 45.03588867 C49.11328125 47.3125 49.11328125 47.3125 51.27075195 50.03637695 C52.91122276 52.38389333 52.91122276 52.38389333 55.11328125 53.3125 C55.11328125 53.9725 55.11328125 54.6325 55.11328125 55.3125 C36.32514892 57.56409152 36.32514892 57.56409152 30.0703125 52.69921875 C27.28737049 50.06921565 24.86484972 47.1941864 22.53881836 44.15722656 C17.44104081 37.56041082 11.61166457 31.52699829 5.80078125 25.5625 C5.10533203 24.82128906 4.40988281 24.08007812 3.69335938 23.31640625 C-2.24379233 17.25409003 -8.73873246 13.29236642 -17.38671875 12.8125 C-28.49332357 13.46533189 -35.22272466 19.83140149 -42.57421875 27.5625 C-43.47205078 28.47902344 -44.36988281 29.39554688 -45.29492188 30.33984375 C-54.06610418 39.26046366 -54.06610418 39.26046366 -61.80078125 49.0625 C-64.50185904 52.61460229 -66.78260935 54.97749868 -71.34326172 55.70361328 C-77.53745801 56.09285124 -83.7058395 55.80707179 -89.88671875 55.3125 C-89.88671875 54.6525 -89.88671875 53.9925 -89.88671875 53.3125 C-88.47945384 52.14549983 -87.06832203 50.9829162 -85.64038086 49.84130859 C-83.81678628 48.25153423 -82.32171777 46.57760722 -80.765625 44.7265625 C-75.79397431 38.96714794 -70.33317842 33.71241212 -64.9140625 28.37890625 C-60.01395458 23.52599038 -55.37227226 18.54889291 -50.88671875 13.3125 C-38.32573358 -0.68604633 -18.18260129 -9.04419546 0 0 Z " fill="#F8F8F8" transform="translate(129.88671875,120.6875)"/>
<path d="M0 0 C8.20782234 -1.57171066 16.62320514 -2.87356517 23.94287109 1.93212891 C30.63477665 7.65103752 36.35246264 14.27150097 42 21 C43.28126421 22.47734281 44.56603504 23.95165717 45.85546875 25.421875 C46.40944336 26.05416016 46.96341797 26.68644531 47.53417969 27.33789062 C56.21205067 37.20779848 56.21205067 37.20779848 68.265625 41.41015625 C78.05794287 41.82346837 84.48695189 40.01159832 91.8125 33.5 C97.88531971 27.66605066 103.50585454 21.30284032 108.81225586 14.76831055 C120.96359198 -0.11607493 120.96359198 -0.11607493 129.77734375 -1.09765625 C134.90387688 -1.23855644 139.94104468 -0.82316973 145 0 C141.24821078 4.45081254 137.41097657 8.66880183 133.22265625 12.71484375 C131.35683193 14.63313414 129.62268202 16.58704162 127.8828125 18.6171875 C123.44522152 23.72773314 118.63129308 28.43951946 113.8125 33.1875 C112.04579814 34.92857892 110.28139273 36.67199183 108.51953125 38.41796875 C107.74714111 39.17875732 106.97475098 39.9395459 106.17895508 40.72338867 C103.93441307 43.0001741 103.93441307 43.0001741 101.87255859 45.66674805 C96.83739661 51.94067805 87.9275789 56.67089553 80 58 C65.86802876 59.32954063 55.62764481 56.50500072 44.44921875 47.35546875 C42.43637879 45.4196753 40.64780865 43.47629202 38.83203125 41.36328125 C34.4803174 36.31313695 29.74669287 31.67584671 25 27 C19.63723202 21.71727333 14.3883299 16.42750272 9.48779297 10.71044922 C7.61226389 8.55423708 5.61439463 6.55039792 3.5625 4.5625 C2.35683879 3.39344331 1.16308602 2.21142206 0 1 C0 0.67 0 0.34 0 0 Z " fill="#F9F9F9" transform="translate(40,49)"/>
</svg>
